<svg viewBox="0 0 85 85" xmlns="http://www.w3.org/2000/svg" xmlns:xlink="http://www.w3.org/1999/xlink" width="85.000000" height="85.000000" fill="none" customFrame="#000000">
	<g id="Group 4233">
		<circle id="Ellipse 73" cx="42.5" cy="42.5" r="41.5" stroke="rgb(243,169,23)" stroke-width="2" transform="matrix(-1,8.74228e-08,-8.74228e-08,-1,85,85)" />
		<path id="Arrow 1" d="M0 -1L43.5 -1L43.5 1L0 1L0 -1ZM42.0858 0L37.136 -4.94975C36.7401 -5.34573 36.7401 -5.96798 37.136 -6.36396C37.532 -6.75994 38.1543 -6.75994 38.5503 -6.36396L44.2071 -0.707106C44.6031 -0.311126 44.6031 0.311126 44.2071 0.707106L38.5503 6.36396C38.1543 6.75994 37.532 6.75994 37.136 6.36396C36.7401 5.96798 36.7401 5.34573 37.136 4.94975L42.0858 0Z" fill="rgb(255,255,255)" fill-rule="nonzero" transform="matrix(-1,8.74228e-08,-8.74228e-08,-1,67,42)" />
	</g>
</svg>
