<svg viewBox="0 0 50 50" xmlns="http://www.w3.org/2000/svg" xmlns:xlink="http://www.w3.org/1999/xlink" width="50.000000" height="50.000000" fill="none" customFrame="#000000">
	<g id="Group">
		<path id="Vector" d="M42.8571 0L7.14286 0C3.19797 0 0 3.19797 0 7.14286L0 42.8571C0 46.802 3.19797 50 7.14286 50L42.8571 50C46.802 50 50 46.802 50 42.8571L50 7.14286C50 3.19797 46.802 0 42.8571 0Z" fill="rgb(40,40,48)" fill-rule="evenodd" />
		<path id="Vector" d="M33.9293 10.7135L33.9293 26.7849L25.0008 26.7849L25.0008 42.8564L19.6436 42.8564L19.6436 26.7849L17.8579 26.7849L17.8579 23.2135L19.6436 23.2135L19.6436 7.14209L33.9293 7.14209L33.9293 10.7135ZM28.5722 10.7135L25.0008 10.7135L25.0008 23.2135L28.5722 23.2135L28.5722 10.7135Z" fill="rgb(243.312,168.514,23.3174)" fill-rule="nonzero" />
	</g>
</svg>
