<svg viewBox="0 0 72.877 80" xmlns="http://www.w3.org/2000/svg" xmlns:xlink="http://www.w3.org/1999/xlink" width="72.876953" height="80.000000" fill="none" customFrame="#000000">
	<g id="Group">
		<path id="Vector" d="M70.5291 12.727C64.8059 12.727 60.15 8.07094 60.15 2.34812L60.15 0L12.727 0L12.727 2.34812C12.727 8.07125 8.07094 12.727 2.34812 12.727L0 12.727L0 28.3423C0 39.5634 3.38016 50.3683 9.77547 59.5886C16.1708 68.8087 25.1062 75.7606 35.6159 79.6922L36.4386 80L37.2614 79.6922C47.7712 75.7606 56.7067 68.8089 63.1017 59.5886C69.497 50.3683 72.8772 39.5634 72.8772 28.3423L72.8772 12.727L70.5291 12.727ZM68.1811 28.3423L68.1809 28.3423C68.1809 38.6023 65.0902 48.4814 59.2427 56.9119C53.5631 65.1006 45.6916 71.3327 36.4384 74.9775C27.1855 71.3325 19.3138 65.1006 13.6342 56.9119C7.78688 48.4816 4.69625 38.6023 4.69625 28.3423L4.69625 17.2408C11.1322 16.2298 16.2298 11.1322 17.2408 4.69625L55.6366 4.69625C56.6473 11.1322 61.745 16.2298 68.1811 17.2408L68.1811 28.3423Z" fill="rgb(255,255,255)" fill-rule="nonzero" />
	</g>
</svg>
