<svg viewBox="0 0 17.7681 18.5715" xmlns="http://www.w3.org/2000/svg" xmlns:xlink="http://www.w3.org/1999/xlink" width="17.768066" height="18.571533" fill="none" customFrame="#000000">
	<path id="twitch - FontAwesome" d="M8.88393 4.84375L8.88393 9.6875L7.26563 9.6875L7.26563 4.84375L8.88393 4.84375ZM13.3259 4.84375L13.3259 9.6875L11.7076 9.6875L11.7076 4.84375L13.3259 4.84375ZM13.3259 13.3259L16.1496 10.4911L16.1496 1.6183L2.82366 1.6183L2.82366 13.3259L6.46205 13.3259L6.46205 15.7478L8.88393 13.3259L13.3259 13.3259ZM17.7679 0L17.7679 11.3058L12.9241 16.1496L9.28571 16.1496L6.86384 18.5714L4.44196 18.5714L4.44196 16.1496L0 16.1496L0 3.22545L1.21652 0L17.7679 0Z" fill="rgb(255,255,255)" fill-rule="nonzero" />
</svg>
