<svg viewBox="0 0 25.2544 15" xmlns="http://www.w3.org/2000/svg" xmlns:xlink="http://www.w3.org/1999/xlink" width="25.254395" height="15.000000" fill="none" customFrame="#000000">
	<path id="Vector" d="M24.6753 1.0158C24.8517 0.42976 24.6753 0 23.841 0L21.0771 0C20.3739 0 20.0525 0.371787 19.8761 0.780121C19.8761 0.780121 18.4708 4.20686 16.4796 6.42875C15.8368 7.07528 15.5432 7.27945 15.1928 7.27945C15.0176 7.27945 14.7631 7.07528 14.7631 6.48925L14.7631 1.0158C14.7631 0.312553 14.5602 0 13.9741 0L9.63115 0C9.19257 0 8.92791 0.325156 8.92791 0.635188C8.92791 1.30062 9.92354 1.45438 10.0256 3.32969L10.0256 7.39792C10.0256 8.28894 9.86557 8.45152 9.51269 8.45152C8.57629 8.45152 6.29768 5.01218 4.94539 1.07503C4.68199 0.310032 4.41606 0.0012608 3.7103 0.0012608L0.94774 0.0012608C0.157537 0.0012608 0 0.373047 0 0.781382C0 1.51487 0.936397 5.14451 4.36187 9.94497C6.64552 13.223 9.86053 15 12.7894 15C14.545 15 14.7618 14.6055 14.7618 13.925L14.7618 11.4472C14.7618 10.6583 14.9294 10.4995 15.4852 10.4995C15.8935 10.4995 16.5968 10.7062 18.2364 12.2853C20.1092 14.1581 20.4193 14.9987 21.4716 14.9987L24.2342 14.9987C25.0231 14.9987 25.4176 14.6043 25.1907 13.8254C24.9424 13.0503 24.0476 11.9224 22.8604 10.5877C22.2152 9.8265 21.251 9.00731 20.9574 8.59771C20.5478 8.06965 20.6663 7.8365 20.9574 7.36767C20.9587 7.36893 24.3249 2.62771 24.6753 1.0158L24.6753 1.0158Z" fill="rgb(255,255,255)" fill-rule="nonzero" />
</svg>
